{
  "accessors": [
    {
      "bufferView": 2,
      "componentType": 5126,
      "count": 222,
      "max": [
        1.4895833730697632,
        0.85416668653488159,
        0.20000000298023224
      ],
      "min": [
        0.71875,
        0.0625,
        0
      ],
      "type": "VEC3"
    },
    {
      "bufferView": 2,
      "byteOffset": 2664,
      "componentType": 5126,
      "count": 222,
      "max": [
        0.99975359439849854,
        0.99979937076568604,
        1
      ],
      "min": [
        -0.99827182292938232,
        -0.99503719806671143,
        -1
      ],
      "type": "VEC3"
    },
    {
      "bufferView": 0,
      "componentType": 5125,
      "count": 576,
      "max": [
        221
      ],
      "min": [
        0
      ],
      "type": "SCALAR"
    },
    {
      "bufferView": 2,
      "byteOffset": 5328,
      "componentType": 5126,
      "count": 34,
      "max": [
        4.75,
        0.875,
        0.93420332670211792
      ],
      "min": [
        4.5833334922790527,
        0.1770833283662796,
        0
      ],
      "type": "VEC3"
    },
    {
      "bufferView": 2,
      "byteOffset": 5736,
      "componentType": 5126,
      "count": 34,
      "max": [
        1,
        1,
        1
      ],
      "min": [
        -0.99988526105880737,
        -0.99805265665054321,
        -1
      ],
      "type": "VEC3"
    },
    {
      "bufferView": 0,
      "byteOffset": 2304,
      "componentType": 5125,
      "count": 60,
      "max": [
        33
      ],
      "min": [
        0
      ],
      "type": "SCALAR"
    },
    {
      "bufferView": 2,
      "byteOffset": 6144,
      "componentType": 5126,
      "count": 45,
      "max": [
        4.0729165077209473,
        0.875,
        0.93420332670211792
      ],
      "min": [
        3.9375,
        0.69791668653488159,
        0
      ],
      "type": "VEC3"
    },
    {
      "bufferView": 2,
      "byteOffset": 6684,
      "componentType": 5126,
      "count": 45,
      "max": [
        1,
        1,
        1
      ],
      "min": [
        -1,
        -1,
        -1
      ],
      "type": "VEC3"
    },
    {
      "bufferView": 0,
      "byteOffset": 2544,
      "componentType": 5125,
      "count": 90,
      "max": [
        44
      ],
      "min": [
        0
      ],
      "type": "SCALAR"
    },
    {
      "bufferView": 2,
      "byteOffset": 7224,
      "componentType": 5126,
      "count": 42,
      "max": [
        3.4270832538604736,
        0.88541668653488159,
        0.93420332670211792
      ],
      "min": [
        3.2604167461395264,
        0.1875,
        0
      ],
      "type": "VEC3"
    },
    {
      "bufferView": 2,
      "byteOffset": 7728,
      "componentType": 5126,
      "count": 42,
      "max": [
        0.99988871812820435,
        1,
        1
      ],
      "min": [
        -1,
        -1,
        -1
      ],
      "type": "VEC3"
    },
    {
      "bufferView": 0,
      "byteOffset": 2904,
      "componentType": 5125,
      "count": 78,
      "max": [
        41
      ],
      "min": [
        0
      ],
      "type": "SCALAR"
    },
    {
      "bufferView": 2,
      "byteOffset": 8232,
      "componentType": 5126,
      "count": 34,
      "max": [
        2.75,
        0.875,
        0.90893912315368652
      ],
      "min": [
        2.5729167461395264,
        0.6875,
        -0.27000001072883606
      ],
      "type": "VEC3"
    },
    {
      "bufferView": 2,
      "byteOffset": 8640,
      "componentType": 5126,
      "count": 34,
      "max": [
        1,
        1,
        1
      ],
      "min": [
        -0.99846041202545166,
        -0.99805265665054321,
        -1
      ],
      "type": "VEC3"
    },
    {
      "bufferView": 0,
      "byteOffset": 3216,
      "componentType": 5125,
      "count": 60,
      "max": [
        33
      ],
      "min": [
        0
      ],
      "type": "SCALAR"
    },
    {
      "bufferView": 2,
      "byteOffset": 9048,
      "componentType": 5126,
      "count": 232,
      "max": [
        2.09375,
        1.4166666269302368,
        0.20000000298023224
      ],
      "min": [
        1.3020833730697632,
        0.375,
        0
      ],
      "type": "VEC3"
    },
    {
      "bufferView": 2,
      "byteOffset": 11832,
      "componentType": 5126,
      "count": 232,
      "max": [
        0.99991792440414429,
        0.99999904632568359,
        1
      ],
      "min": [
        -0.99987953901290894,
        -0.99699956178665161,
        -1
      ],
      "type": "VEC3"
    },
    {
      "bufferView": 0,
      "byteOffset": 3456,
      "componentType": 5125,
      "count": 624,
      "max": [
        231
      ],
      "min": [
        0
      ],
      "type": "SCALAR"
    },
    {
      "bufferView": 2,
      "byteOffset": 14616,
      "componentType": 5126,
      "count": 36,
      "max": [
        4.3854165077209473,
        2.0833332538604736,
        0.93420332670211792
      ],
      "min": [
        4.1979165077209473,
        1.8958333730697632,
        0
      ],
      "type": "VEC3"
    },
    {
      "bufferView": 2,
      "byteOffset": 15048,
      "componentType": 5126,
      "count": 36,
      "max": [
        0.99846047163009644,
        1,
        1
      ],
      "min": [
        -0.99846035242080688,
        -1,
        -1
      ],
      "type": "VEC3"
    },
    {
      "bufferView": 0,
      "byteOffset": 5952,
      "componentType": 5125,
      "count": 60,
      "max": [
        35
      ],
      "min": [
        0
      ],
      "type": "SCALAR"
    },
    {
      "bufferView": 2,
      "byteOffset": 15480,
      "componentType": 5126,
      "count": 510,
      "max": [
        1.25,
        2.2083332538604736,
        0.20000000298023224
      ],
      "min": [
        0.041666667908430099,
        0.375,
        0
      ],
      "type": "VEC3"
    },
    {
      "bufferView": 2,
      "byteOffset": 21600,
      "componentType": 5126,
      "count": 510,
      "max": [
        1,
        0.9997175931930542,
        1
      ],
      "min": [
        -1,
        -1,
        -1
      ],
      "type": "VEC3"
    },
    {
      "bufferView": 0,
      "byteOffset": 6192,
      "componentType": 5125,
      "count": 1344,
      "max": [
        509
      ],
      "min": [
        0
      ],
      "type": "SCALAR"
    },
    {
      "bufferView": 2,
      "byteOffset": 27720,
      "componentType": 5126,
      "count": 3818,
      "max": [
        6.3068780899047852,
        2.2604379653930664,
        0.20000474154949188
      ],
      "min": [
        2.1956071577733383e-05,
        0.0035789466928690672,
        8.1036540677814628e-07
      ],
      "type": "VEC3"
    },
    {
      "bufferView": 2,
      "byteOffset": 73536,
      "componentType": 5126,
      "count": 3818,
      "max": [
        1,
        1,
        1
      ],
      "min": [
        -1,
        -1,
        -1
      ],
      "type": "VEC3"
    },
    {
      "bufferView": 3,
      "componentType": 5126,
      "count": 3818,
      "max": [
        0,
        0,
        0,
        0
      ],
      "min": [
        0,
        0,
        0,
        0
      ],
      "type": "VEC4"
    },
    {
      "bufferView": 1,
      "componentType": 5126,
      "count": 3818,
      "max": [
        0,
        0
      ],
      "min": [
        0,
        0
      ],
      "type": "VEC2"
    },
    {
      "bufferView": 0,
      "byteOffset": 11568,
      "componentType": 5125,
      "count": 8616,
      "max": [
        3817
      ],
      "min": [
        0
      ],
      "type": "SCALAR"
    }
  ],
  "asset": {
    "extras": {
      "author": "ZLM Crafter (https://sketchfab.com/zlmalliance)",
      "license": "CC-BY-4.0 (http://creativecommons.org/licenses/by/4.0/)",
      "source": "https://sketchfab.com/3d-models/war-robots-3d-872f1a2146b84298a063cb2485a377c8",
      "title": "War Robots | 戰爭機器人 3D 模型"
    },
    "generator": "Sketchfab-7.86.0",
    "version": "2.0"
  },
  "bufferViews": [
    {
      "buffer": 0,
      "byteLength": 46032,
      "byteOffset": 0,
      "name": "floatBufferViews",
      "target": 34963
    },
    {
      "buffer": 0,
      "byteLength": 30544,
      "byteOffset": 46032,
      "byteStride": 8,
      "name": "floatBufferViews",
      "target": 34962
    },
    {
      "buffer": 0,
      "byteLength": 119352,
      "byteOffset": 76576,
      "byteStride": 12,
      "name": "floatBufferViews",
      "target": 34962
    },
    {
      "buffer": 0,
      "byteLength": 61088,
      "byteOffset": 195928,
      "byteStride": 16,
      "name": "floatBufferViews",
      "target": 34962
    }
  ],
  "buffers": [
    {
      "byteLength": 257016,
      "uri": "scene.bin"
    }
  ],
  "materials": [
    {
      "doubleSided": true,
      "emissiveFactor": [
        0,
        0,
        0
      ],
      "name": "Shape19__0",
      "pbrMetallicRoughness": {
        "baseColorFactor": [
          1,
          1,
          1,
          1
        ],
        "metallicFactor": 0,
        "roughnessFactor": 0.59999999999999998
      }
    },
    {
      "doubleSided": true,
      "emissiveFactor": [
        0,
        0,
        0
      ],
      "name": "02_-_Default",
      "pbrMetallicRoughness": {
        "baseColorFactor": [
          0.58823499999999995,
          0.58823499999999995,
          0.58823499999999995,
          1
        ],
        "metallicFactor": 0,
        "roughnessFactor": 0
      }
    }
  ],
  "meshes": [
    {
      "name": "Shape19__0",
      "primitives": [
        {
          "attributes": {
            "NORMAL": 1,
            "POSITION": 0
          },
          "indices": 2,
          "material": 0,
          "mode": 4
        }
      ]
    },
    {
      "name": "Shape18__0",
      "primitives": [
        {
          "attributes": {
            "NORMAL": 4,
            "POSITION": 3
          },
          "indices": 5,
          "material": 0,
          "mode": 4
        }
      ]
    },
    {
      "name": "Shape17__0",
      "primitives": [
        {
          "attributes": {
            "NORMAL": 7,
            "POSITION": 6
          },
          "indices": 8,
          "material": 0,
          "mode": 4
        }
      ]
    },
    {
      "name": "Shape16__0",
      "primitives": [
        {
          "attributes": {
            "NORMAL": 10,
            "POSITION": 9
          },
          "indices": 11,
          "material": 0,
          "mode": 4
        }
      ]
    },
    {
      "name": "Shape15__0",
      "primitives": [
        {
          "attributes": {
            "NORMAL": 13,
            "POSITION": 12
          },
          "indices": 14,
          "material": 0,
          "mode": 4
        }
      ]
    },
    {
      "name": "Shape8__0",
      "primitives": [
        {
          "attributes": {
            "NORMAL": 16,
            "POSITION": 15
          },
          "indices": 17,
          "material": 0,
          "mode": 4
        }
      ]
    },
    {
      "name": "Shape6__0",
      "primitives": [
        {
          "attributes": {
            "NORMAL": 19,
            "POSITION": 18
          },
          "indices": 20,
          "material": 0,
          "mode": 4
        }
      ]
    },
    {
      "name": "Shape5__0",
      "primitives": [
        {
          "attributes": {
            "NORMAL": 22,
            "POSITION": 21
          },
          "indices": 23,
          "material": 0,
          "mode": 4
        }
      ]
    },
    {
      "name": "Shape1_02 - Default_0",
      "primitives": [
        {
          "attributes": {
            "COLOR_0": 26,
            "NORMAL": 25,
            "POSITION": 24,
            "TEXCOORD_0": 27
          },
          "indices": 28,
          "material": 1,
          "mode": 4
        }
      ]
    }
  ],
  "nodes": [
    {
      "children": [
        1
      ],
      "name": "RootNode (gltf orientation matrix)",
      "rotation": [
        -0.70710678118654746,
        -0,
        -0,
        0.70710678118654757
      ]
    },
    {
      "children": [
        2
      ],
      "name": "RootNode (model correction matrix)"
    },
    {
      "children": [
        3
      ],
      "matrix": [
        1,
        0,
        0,
        0,
        0,
        0,
        1,
        0,
        0,
        -1,
        0,
        0,
        0,
        0,
        0,
        1
      ],
      "name": "0c97451cacf5423eb0f6628becbe6609.fbx"
    },
    {
      "children": [
        4,
        7,
        10,
        13,
        16,
        19,
        22,
        25,
        28
      ],
      "name": "RootNode"
    },
    {
      "children": [
        5
      ],
      "matrix": [
        1,
        0,
        0,
        0,
        0,
        2.2204460492503131e-16,
        -1,
        0,
        0,
        1,
        2.2204460492503131e-16,
        0,
        1.1041667461395264,
        0,
        -0.45833337306976318,
        1
      ],
      "name": "Shape19"
    },
    {
      "children": [
        6
      ],
      "matrix": [
        1,
        0,
        -0,
        0,
        0,
        1,
        0,
        0,
        0,
        0,
        1,
        0,
        -1.1041667461395264,
        -0.4583333432674408,
        -0,
        1
      ],
      "name": ""
    },
    {
      "mesh": 0,
      "name": "Shape19__0"
    },
    {
      "children": [
        8
      ],
      "matrix": [
        1,
        0,
        0,
        0,
        0,
        2.2204460492503131e-16,
        -1,
        0,
        0,
        1,
        2.2204460492503131e-16,
        0,
        4.6666669845581055,
        -0.2800000011920929,
        -0.52604168653488159,
        1
      ],
      "name": "Shape18"
    },
    {
      "children": [
        9
      ],
      "matrix": [
        1,
        0,
        -0,
        0,
        0,
        1,
        0,
        0,
        0,
        0,
        1,
        0,
        -4.6666669845581055,
        -0.52604168653488159,
        -0,
        1
      ],
      "name": ""
    },
    {
      "mesh": 1,
      "name": "Shape18__0"
    },
    {
      "children": [
        11
      ],
      "matrix": [
        1,
        0,
        0,
        0,
        0,
        2.2204460492503131e-16,
        -1,
        0,
        0,
        1,
        2.2204460492503131e-16,
        0,
        4.0052080154418945,
        -0.32731914520263672,
        -0.78645837306976318,
        1
      ],
      "name": "Shape17"
    },
    {
      "children": [
        12
      ],
      "matrix": [
        1,
        0,
        -0,
        0,
        0,
        1,
        0,
        0,
        0,
        0,
        1,
        0,
        -4.0052080154418945,
        -0.78645837306976318,
        -0,
        1
      ],
      "name": ""
    },
    {
      "mesh": 2,
      "name": "Shape17__0"
    },
    {
      "children": [
        14
      ],
      "matrix": [
        1,
        0,
        0,
        0,
        0,
        2.2204460492503131e-16,
        -1,
        0,
        0,
        1,
        2.2204460492503131e-16,
        0,
        3.3437502384185791,
        -0.25,
        -0.53645837306976318,
        1
      ],
      "name": "Shape16"
    },
    {
      "children": [
        15
      ],
      "matrix": [
        1,
        0,
        -0,
        0,
        0,
        1,
        0,
        0,
        0,
        0,
        1,
        0,
        -3.34375,
        -0.53645837306976318,
        -0,
        1
      ],
      "name": ""
    },
    {
      "mesh": 3,
      "name": "Shape16__0"
    },
    {
      "children": [
        17
      ],
      "matrix": [
        1,
        0,
        0,
        0,
        0,
        2.2204460492503131e-16,
        -1,
        0,
        0,
        1,
        2.2204460492503131e-16,
        0,
        2.6614582538604736,
        0,
        -0.78125,
        1
      ],
      "name": "Shape15"
    },
    {
      "children": [
        18
      ],
      "matrix": [
        1,
        0,
        -0,
        0,
        0,
        1,
        0,
        0,
        0,
        0,
        1,
        0,
        -2.6614584922790527,
        -0.78125,
        -0,
        1
      ],
      "name": ""
    },
    {
      "mesh": 4,
      "name": "Shape15__0"
    },
    {
      "children": [
        20
      ],
      "matrix": [
        1,
        0,
        0,
        0,
        0,
        2.2204460492503131e-16,
        -1,
        0,
        0,
        1,
        2.2204460492503131e-16,
        0,
        1.6979167461395264,
        0,
        -0.89583331346511841,
        1
      ],
      "name": "Shape8"
    },
    {
      "children": [
        21
      ],
      "matrix": [
        1,
        0,
        -0,
        0,
        0,
        1,
        0,
        0,
        0,
        0,
        1,
        0,
        -1.6979167461395264,
        -0.89583331346511841,
        -0,
        1
      ],
      "name": ""
    },
    {
      "mesh": 5,
      "name": "Shape8__0"
    },
    {
      "children": [
        23
      ],
      "matrix": [
        1,
        0,
        0,
        0,
        0,
        2.2204460492503131e-16,
        -1,
        0,
        0,
        1,
        2.2204460492503131e-16,
        0,
        4.2916660308837891,
        -0.2800000011920929,
        -1.9895832538604736,
        1
      ],
      "name": "Shape6"
    },
    {
      "children": [
        24
      ],
      "matrix": [
        1,
        0,
        -0,
        0,
        0,
        1,
        0,
        0,
        0,
        0,
        1,
        0,
        -4.2916665077209473,
        -1.9895832538604736,
        -0,
        1
      ],
      "name": ""
    },
    {
      "mesh": 6,
      "name": "Shape6__0"
    },
    {
      "children": [
        26
      ],
      "matrix": [
        1,
        0,
        0,
        0,
        0,
        2.2204460492503131e-16,
        -1,
        0,
        0,
        1,
        2.2204460492503131e-16,
        0,
        0.64583325386047363,
        0,
        -1.2916665077209473,
        1
      ],
      "name": "Shape5"
    },
    {
      "children": [
        27
      ],
      "matrix": [
        1,
        0,
        -0,
        0,
        0,
        1,
        0,
        0,
        0,
        0,
        1,
        0,
        -0.64583331346511841,
        -1.2916666269302368,
        -0,
        1
      ],
      "name": ""
    },
    {
      "mesh": 7,
      "name": "Shape5__0"
    },
    {
      "children": [
        29
      ],
      "matrix": [
        259.85336303710938,
        0,
        0,
        0,
        0,
        5.7699037334015685e-14,
        -259.85336303710938,
        0,
        0,
        259.85336303710938,
        5.7699037334015685e-14,
        0,
        -697.25299072265625,
        -25.985542297363281,
        -225.5577392578125,
        1
      ],
      "name": "Shape1"
    },
    {
      "children": [
        30
      ],
      "matrix": [
        1,
        0,
        -0,
        0,
        0,
        1,
        0,
        0,
        0,
        0,
        1,
        0,
        -1.1041666269302368,
        -1.1369750499725342,
        -0,
        1
      ],
      "name": ""
    },
    {
      "mesh": 8,
      "name": "Shape1_02 - Default_0"
    }
  ],
  "scene": 0,
  "scenes": [
    {
      "name": "OSG_Scene",
      "nodes": [
        0
      ]
    }
  ]
}

